<svg width="20" height="23" viewBox="0 0 20 23" fill="none" xmlns="http://www.w3.org/2000/svg">
<path d="M1.94995 5.75H5.39995V4.6C5.39995 3.38 5.88459 2.20998 6.74726 1.34731C7.60993 0.484642 8.77996 0 9.99995 0C11.2199 0 12.39 0.484642 13.2526 1.34731C14.1153 2.20998 14.6 3.38 14.6 4.6V5.75H18.05C18.355 5.75 18.6475 5.87116 18.8631 6.08683C19.0788 6.30249 19.2 6.595 19.2 6.9V19.55C19.2 20.465 18.8365 21.3425 18.1895 21.9895C17.5425 22.6365 16.6649 23 15.75 23H4.24995C3.33495 23 2.45743 22.6365 1.81043 21.9895C1.16343 21.3425 0.799952 20.465 0.799952 19.55V6.9C0.799952 6.595 0.92111 6.30249 1.13678 6.08683C1.35245 5.87116 1.64495 5.75 1.94995 5.75ZM12.3 4.6C12.3 3.99 12.0576 3.40499 11.6263 2.97365C11.195 2.54232 10.6099 2.3 9.99995 2.3C9.38995 2.3 8.80494 2.54232 8.37361 2.97365C7.94227 3.40499 7.69995 3.99 7.69995 4.6V5.75H12.3V4.6ZM3.09995 19.55C3.09995 19.855 3.22111 20.1475 3.43678 20.3632C3.65244 20.5788 3.94495 20.7 4.24995 20.7H15.75C16.055 20.7 16.3475 20.5788 16.5631 20.3632C16.7788 20.1475 16.9 19.855 16.9 19.55V8.05H14.6V9.2C14.6 9.505 14.4788 9.79751 14.2631 10.0132C14.0475 10.2288 13.755 10.35 13.45 10.35C13.145 10.35 12.8524 10.2288 12.6368 10.0132C12.4211 9.79751 12.3 9.505 12.3 9.2V8.05H7.69995V9.2C7.69995 9.505 7.57879 9.79751 7.36312 10.0132C7.14746 10.2288 6.85495 10.35 6.54995 10.35C6.24495 10.35 5.95245 10.2288 5.73678 10.0132C5.52111 9.79751 5.39995 9.505 5.39995 9.2V8.05H3.09995V19.55Z" fill="#007AFF"/>
</svg>
