<svg width="23" height="25" viewBox="0 0 23 25" fill="none" xmlns="http://www.w3.org/2000/svg">
<path d="M22.9996 12.2998C22.9996 11.3105 22.9215 10.5885 22.7524 9.83984H11.7573V14.3052H18.2112C18.0811 15.4149 17.3785 17.086 15.817 18.209L15.7951 18.3585L19.2716 21.1257L19.5124 21.1504C21.7244 19.0513 22.9996 15.963 22.9996 12.2998Z" fill="white"/>
<path d="M11.7575 24.0648C14.9194 24.0648 17.5738 22.9952 19.5126 21.1503L15.8172 18.2089C14.8283 18.9175 13.5011 19.4122 11.7575 19.4122C8.6607 19.4122 6.03231 17.3133 5.09536 14.4121L4.95803 14.4241L1.34317 17.2985L1.2959 17.4335C3.22164 21.3641 7.17728 24.0648 11.7575 24.0648Z" fill="white"/>
<path d="M5.09545 14.4123C4.84823 13.6637 4.70516 12.8614 4.70516 12.0326C4.70516 11.2036 4.84823 10.4015 5.08245 9.65281L5.0759 9.49336L1.41574 6.57275L1.29599 6.63128C0.502298 8.26237 0.046875 10.094 0.046875 12.0326C0.046875 13.9711 0.502298 15.8027 1.29599 17.4338L5.09545 14.4123Z" fill="white"/>
<path d="M11.758 4.65252C13.957 4.65252 15.4403 5.62848 16.2861 6.44407L19.5911 3.12844C17.5613 1.18988 14.9199 0 11.758 0C7.17777 0 3.22213 2.7006 1.29639 6.63117L5.08284 9.6527C6.0328 6.75154 8.66119 4.65252 11.758 4.65252Z" fill="white"/>
</svg>
