<svg width="20" height="20" viewBox="0 0 20 20" fill="none" xmlns="http://www.w3.org/2000/svg">
<path d="M10 0C11.9778 0 13.9112 0.58649 15.5557 1.6853C17.2002 2.78412 18.4819 4.3459 19.2388 6.17317C19.9957 8.00043 20.1937 10.0111 19.8078 11.9509C19.422 13.8907 18.4696 15.6725 17.0711 17.0711C15.6725 18.4696 13.8907 19.422 11.9509 19.8079C10.0111 20.1937 8.00042 19.9957 6.17316 19.2388C4.3459 18.4819 2.78411 17.2002 1.6853 15.5557C0.586487 13.9112 -3.8147e-06 11.9778 -3.8147e-06 10C-3.8147e-06 8.68678 0.258654 7.38642 0.7612 6.17317C1.26375 4.95991 2.00034 3.85752 2.92893 2.92893C3.85751 2.00035 4.9599 1.26375 6.17316 0.761205C7.38642 0.258658 8.68678 0 10 0ZM10 18C11.5822 18 13.129 17.5308 14.4446 16.6518C15.7602 15.7727 16.7855 14.5233 17.391 13.0615C17.9965 11.5997 18.155 9.99113 17.8463 8.43928C17.5376 6.88743 16.7757 5.46197 15.6568 4.34315C14.538 3.22433 13.1126 2.4624 11.5607 2.15372C10.0089 1.84504 8.40034 2.00346 6.93853 2.60896C5.47672 3.21447 4.22729 4.23984 3.34824 5.55544C2.46919 6.87103 2 8.41775 2 10C2 12.1217 2.84285 14.1566 4.34314 15.6569C5.84343 17.1571 7.87826 18 10 18Z" fill="#181725"/>
<path d="M9.78223 4.00007C10.7105 4.00007 11.6007 4.36882 12.2571 5.02519C12.9135 5.68157 13.2822 6.57181 13.2822 7.50007C13.2822 7.76528 13.1769 8.01964 12.9893 8.20717C12.8018 8.39471 12.5474 8.50007 12.2822 8.50007C12.017 8.50007 11.7627 8.39471 11.5751 8.20717C11.3876 8.01964 11.2822 7.76528 11.2822 7.50007C11.2822 7.2034 11.1943 6.91339 11.0294 6.66671C10.8646 6.42004 10.6303 6.22778 10.3563 6.11425C10.0822 6.00072 9.78056 5.97101 9.48959 6.02889C9.19862 6.08677 8.93134 6.22963 8.72157 6.43941C8.51179 6.64919 8.36893 6.91646 8.31105 7.20743C8.25317 7.4984 8.28288 7.8 8.39641 8.07409C8.50994 8.34818 8.7022 8.58245 8.94887 8.74727C9.19555 8.91209 9.48555 9.00007 9.78223 9.00007C10.0474 9.00007 10.3018 9.10542 10.4893 9.29296C10.6769 9.4805 10.7822 9.73485 10.7822 10.0001V12.0001C10.7822 12.2653 10.6769 12.5196 10.4893 12.7072C10.3018 12.8947 10.0474 13.0001 9.78223 13.0001C9.51701 13.0001 9.26266 12.8947 9.07512 12.7072C8.88758 12.5196 8.78223 12.2653 8.78223 12.0001V10.8401C7.97412 10.6041 7.27856 10.0839 6.82374 9.37551C6.36892 8.66709 6.18549 7.81814 6.30728 6.98513C6.42906 6.15213 6.84784 5.39122 7.48643 4.84266C8.12503 4.29409 8.94039 3.99484 9.78223 4.00007Z" fill="#181725"/>
<path d="M9.78223 16C9.22994 16 8.78223 15.5523 8.78223 15C8.78223 14.4477 9.22994 14 9.78223 14C10.3345 14 10.7822 14.4477 10.7822 15C10.7822 15.5523 10.3345 16 9.78223 16Z" fill="#181725"/>
</svg>
