<svg width="24" height="24" viewBox="0 0 24 24" fill="none" xmlns="http://www.w3.org/2000/svg">
<path d="M12 5.16695C12 4.84601 12 4.68424 12.0738 4.55224C12.1417 4.43946 12.2423 4.35007 12.3624 4.29601C12.5021 4.23907 12.6445 4.25718 12.9292 4.29083C14.2039 4.44468 15.4206 4.91224 16.4703 5.65166C17.52 6.39107 18.37 7.37926 18.9441 8.52774C19.5182 9.67623 19.7985 10.9492 19.76 12.2326C19.7215 13.516 19.3653 14.7698 18.7233 15.8818C18.0814 16.9938 17.1737 17.9292 16.0815 18.6043C14.9893 19.2794 13.7468 19.6732 12.4651 19.7503C11.1834 19.8274 9.90266 19.5855 8.73743 19.0462C7.5722 18.5069 6.55889 17.687 5.78823 16.66C5.61612 16.4297 5.52941 16.3145 5.51 16.1657C5.49659 16.0343 5.52368 15.902 5.58765 15.7865C5.66529 15.6571 5.80376 15.5768 6.082 15.4164L11.5341 12.2691C11.7036 12.1707 11.7891 12.1215 11.8499 12.0529C11.9033 11.9914 11.9445 11.9202 11.9715 11.8433C12 11.7566 12 11.6582 12 11.4615V5.16695Z" fill="black"/>
<path d="M12 23C18.0751 23 23 18.0751 23 12C23 5.92487 18.0751 1 12 1C5.92487 1 1 5.92487 1 12C1 18.0751 5.92487 23 12 23Z" stroke="black"/>
</svg>
