<svg width="22" height="19" viewBox="0 0 22 19" fill="none" xmlns="http://www.w3.org/2000/svg">
<path d="M16.9231 2.53846C16.9231 3.2117 17.1906 3.85737 17.6666 4.33343C18.1427 4.80948 18.7884 5.07692 19.4616 5.07692C20.1348 5.07692 20.7805 4.80948 21.2566 4.33343C21.7326 3.85737 22.0001 3.2117 22.0001 2.53846C22.0001 1.86522 21.7326 1.21955 21.2566 0.743498C20.7805 0.267444 20.1348 0 19.4616 0C18.7884 0 18.1427 0.267444 17.6666 0.743498C17.1906 1.21955 16.9231 1.86522 16.9231 2.53846ZM16.9231 9.30769C16.9231 9.98093 17.1906 10.6266 17.6666 11.1027C18.1427 11.5787 18.7884 11.8462 19.4616 11.8462C20.1348 11.8462 20.7805 11.5787 21.2566 11.1027C21.7326 10.6266 22.0001 9.98093 22.0001 9.30769C22.0001 8.63445 21.7326 7.98878 21.2566 7.51273C20.7805 7.03667 20.1348 6.76923 19.4616 6.76923C18.7884 6.76923 18.1427 7.03667 17.6666 7.51273C17.1906 7.98878 16.9231 8.63445 16.9231 9.30769ZM16.9231 16.0769C16.9231 16.7502 17.1906 17.3958 17.6666 17.8719C18.1427 18.3479 18.7884 18.6154 19.4616 18.6154C20.1348 18.6154 20.7805 18.3479 21.2566 17.8719C21.7326 17.3958 22.0001 16.7502 22.0001 16.0769C22.0001 15.4037 21.7326 14.758 21.2566 14.282C20.7805 13.8059 20.1348 13.5385 19.4616 13.5385C18.7884 13.5385 18.1427 13.8059 17.6666 14.282C17.1906 14.758 16.9231 15.4037 16.9231 16.0769Z" fill="black"/>
<path fill-rule="evenodd" clip-rule="evenodd" d="M15.2308 2.5385C15.2308 2.08967 15.0525 1.65923 14.7351 1.34186C14.4177 1.02449 13.9873 0.846191 13.5385 0.846191H1.69231C1.24348 0.846191 0.813038 1.02449 0.495668 1.34186C0.1783 1.65923 4.76837e-06 2.08967 4.76837e-06 2.5385C4.76837e-06 2.98733 0.1783 3.41777 0.495668 3.73514C0.813038 4.05251 1.24348 4.23081 1.69231 4.23081H13.5385C13.9873 4.23081 14.4177 4.05251 14.7351 3.73514C15.0525 3.41777 15.2308 2.98733 15.2308 2.5385ZM15.2308 9.30773C15.2308 8.8589 15.0525 8.42846 14.7351 8.11109C14.4177 7.79372 13.9873 7.61542 13.5385 7.61542H1.69231C1.24348 7.61542 0.813038 7.79372 0.495668 8.11109C0.1783 8.42846 4.76837e-06 8.8589 4.76837e-06 9.30773C4.76837e-06 9.75656 0.1783 10.187 0.495668 10.5044C0.813038 10.8217 1.24348 11 1.69231 11H13.5385C13.9873 11 14.4177 10.8217 14.7351 10.5044C15.0525 10.187 15.2308 9.75656 15.2308 9.30773ZM15.2308 16.077C15.2308 15.6281 15.0525 15.1977 14.7351 14.8803C14.4177 14.5629 13.9873 14.3847 13.5385 14.3847H1.69231C1.24348 14.3847 0.813038 14.5629 0.495668 14.8803C0.1783 15.1977 4.76837e-06 15.6281 4.76837e-06 16.077C4.76837e-06 16.5258 0.1783 16.9562 0.495668 17.2736C0.813038 17.591 1.24348 17.7693 1.69231 17.7693H13.5385C13.9873 17.7693 14.4177 17.591 14.7351 17.2736C15.0525 16.9562 15.2308 16.5258 15.2308 16.077Z" fill="black"/>
</svg>
