<svg width="18" height="20" viewBox="0 0 18 20" fill="none" xmlns="http://www.w3.org/2000/svg">
<path d="M0.490261 13.2069L2.29015 11.397V6.93728C2.26621 5.2812 2.84225 3.67239 3.91193 2.40789C4.98161 1.14339 6.47267 0.308613 8.1098 0.0576935C9.05993 -0.0674318 10.0258 0.0115112 10.943 0.289255C11.8602 0.566999 12.7077 1.03716 13.4288 1.66836C14.1499 2.29956 14.7281 3.07729 15.1248 3.94965C15.5215 4.82202 15.7276 5.76896 15.7293 6.72729V11.397L17.5292 13.2069C17.7553 13.4368 17.9086 13.7281 17.97 14.0446C18.0314 14.3612 17.9981 14.6887 17.8743 14.9864C17.7506 15.2841 17.5418 15.5387 17.2741 15.7184C17.0064 15.8981 16.6917 15.9949 16.3693 15.9967H13.0095V16.3367C12.9628 17.3519 12.5156 18.3071 11.7659 18.9931C11.0161 19.6791 10.025 20.0399 9.00975 19.9965C7.99446 20.0399 7.00337 19.6791 6.25364 18.9931C5.50391 18.3071 5.05669 17.3519 5.00999 16.3367V15.9967H1.65019C1.32779 15.9949 1.01308 15.8981 0.745398 15.7184C0.477715 15.5387 0.268934 15.2841 0.145161 14.9864C0.0213871 14.6887 -0.0118904 14.3612 0.0494881 14.0446C0.110868 13.7281 0.264181 13.4368 0.490261 13.2069ZM7.00987 16.3367C7.06532 16.8177 7.30421 17.2587 7.67676 17.5679C8.0493 17.8771 8.52679 18.0307 9.00975 17.9966C9.4927 18.0307 9.97019 17.8771 10.3427 17.5679C10.7153 17.2587 10.9542 16.8177 11.0096 16.3367V15.9967H7.00987V16.3367ZM15.4994 13.9969L14.3194 12.8169C14.1323 12.6309 13.9838 12.4096 13.8825 12.1659C13.7813 11.9222 13.7293 11.6609 13.7295 11.397V6.72729C13.7289 6.05273 13.5841 5.3861 13.3047 4.77212C13.0253 4.15814 12.6178 3.61103 12.1096 3.16751C11.6082 2.71322 11.0141 2.3733 10.3683 2.1713C9.7226 1.96929 9.04068 1.91002 8.36979 1.99758C7.21338 2.18534 6.16372 2.78454 5.41407 3.68485C4.66442 4.58517 4.26525 5.72599 4.29003 6.89728V11.397C4.29155 11.6602 4.24111 11.9211 4.14158 12.1648C4.04206 12.4084 3.89542 12.6301 3.71007 12.8169L2.52014 13.9969H15.4994Z" fill="#181725"/>
</svg>
