<svg width="17" height="22" viewBox="0 0 17 22" fill="none" xmlns="http://www.w3.org/2000/svg">
<path d="M1.0625 5.6875H4.25V4.625C4.25 3.49783 4.69777 2.41683 5.4948 1.6198C6.29183 0.822767 7.37283 0.375 8.5 0.375C9.62717 0.375 10.7082 0.822767 11.5052 1.6198C12.3022 2.41683 12.75 3.49783 12.75 4.625V5.6875H15.9375C16.2193 5.6875 16.4895 5.79944 16.6888 5.9987C16.8881 6.19796 17 6.46821 17 6.75V18.4375C17 19.2829 16.6642 20.0936 16.0664 20.6914C15.4686 21.2892 14.6579 21.625 13.8125 21.625H3.1875C2.34212 21.625 1.53137 21.2892 0.933598 20.6914C0.335825 20.0936 0 19.2829 0 18.4375V6.75C0 6.46821 0.11194 6.19796 0.311199 5.9987C0.510456 5.79944 0.780708 5.6875 1.0625 5.6875ZM10.625 4.625C10.625 4.06142 10.4011 3.52091 10.0026 3.1224C9.60409 2.72388 9.06359 2.5 8.5 2.5C7.93641 2.5 7.39591 2.72388 6.9974 3.1224C6.59888 3.52091 6.375 4.06142 6.375 4.625V5.6875H10.625V4.625ZM2.125 18.4375C2.125 18.7193 2.23694 18.9895 2.4362 19.1888C2.63546 19.3881 2.90571 19.5 3.1875 19.5H13.8125C14.0943 19.5 14.3645 19.3881 14.5638 19.1888C14.7631 18.9895 14.875 18.7193 14.875 18.4375V7.8125H12.75V8.875C12.75 9.15679 12.6381 9.42704 12.4388 9.6263C12.2395 9.82556 11.9693 9.9375 11.6875 9.9375C11.4057 9.9375 11.1355 9.82556 10.9362 9.6263C10.7369 9.42704 10.625 9.15679 10.625 8.875V7.8125H6.375V8.875C6.375 9.15679 6.26306 9.42704 6.0638 9.6263C5.86454 9.82556 5.59429 9.9375 5.3125 9.9375C5.03071 9.9375 4.76046 9.82556 4.5612 9.6263C4.36194 9.42704 4.25 9.15679 4.25 8.875V7.8125H2.125V18.4375Z" fill="black"/>
</svg>
