<svg width="21" height="20" viewBox="0 0 21 20" fill="none" xmlns="http://www.w3.org/2000/svg">
<path d="M10.4922 0C12.47 0 14.4034 0.58649 16.0479 1.6853C17.6924 2.78412 18.9741 4.3459 19.731 6.17317C20.4879 8.00043 20.6859 10.0111 20.3 11.9509C19.9142 13.8907 18.9618 15.6725 17.5633 17.0711C16.1647 18.4696 14.3829 19.422 12.4431 19.8079C10.5033 20.1937 8.49261 19.9957 6.66535 19.2388C4.83809 18.4819 3.2763 17.2002 2.17749 15.5557C1.07867 13.9112 0.492184 11.9778 0.492184 10C0.492184 8.68678 0.750841 7.38642 1.25339 6.17317C1.75593 4.95991 2.49253 3.85752 3.42112 2.92893C4.3497 2.00035 5.45209 1.26375 6.66535 0.761205C7.8786 0.258658 9.17896 0 10.4922 0ZM10.4922 18C12.0744 18 13.6212 17.5308 14.9367 16.6518C16.2523 15.7727 17.2777 14.5233 17.8832 13.0615C18.4887 11.5997 18.6471 9.99113 18.3385 8.43928C18.0298 6.88743 17.2679 5.46197 16.149 4.34315C15.0302 3.22433 13.6048 2.4624 12.0529 2.15372C10.5011 1.84504 8.89252 2.00346 7.43072 2.60896C5.96891 3.21447 4.71948 4.23984 3.84043 5.55544C2.96138 6.87103 2.49218 8.41775 2.49218 10C2.49218 12.1217 3.33504 14.1566 4.83533 15.6569C6.33562 17.1571 8.37045 18 10.4922 18Z" fill="#181725"/>
<path d="M10.4922 15C9.9399 15 9.49219 14.5523 9.49219 14C9.49219 13.4477 9.9399 13 10.4922 13C11.0445 13 11.4922 13.4477 11.4922 14C11.4922 14.5523 11.0445 15 10.4922 15Z" fill="#181725"/>
<path d="M10.4922 5C10.7574 5 11.0118 5.10536 11.1993 5.29289C11.3868 5.48043 11.4922 5.73478 11.4922 6V11C11.4922 11.2652 11.3868 11.5196 11.1993 11.7071C11.0118 11.8946 10.7574 12 10.4922 12C10.227 12 9.97262 11.8946 9.78508 11.7071C9.59754 11.5196 9.49219 11.2652 9.49219 11V6C9.49219 5.73478 9.59754 5.48043 9.78508 5.29289C9.97262 5.10536 10.227 5 10.4922 5Z" fill="#181725"/>
</svg>
