<svg width="20" height="21" viewBox="0 0 20 21" fill="none" xmlns="http://www.w3.org/2000/svg">
<path fill-rule="evenodd" clip-rule="evenodd" d="M5.625 17.6475C2.5125 17.6475 0 16.3975 0 14.5225V2.64746C0 1.39746 2.5 0.147461 5.625 0.147461C8.75 0.147461 11.25 1.39746 11.25 2.64746V7.02246C9.7875 7.63496 8.5375 8.65996 7.65 9.95996C7.0375 10.08 6.3625 10.1462 5.625 10.1462C3.9875 10.1462 2.625 9.81996 1.65 9.28871C1.51158 9.21264 1.37685 9.13004 1.24625 9.04121V10.7662C1.24625 11.06 1.48 11.5162 2.24875 11.9362C2.99375 12.3425 4.13625 12.6412 5.62375 12.6412C5.92125 12.6412 6.20458 12.63 6.47375 12.6075C6.37375 13.0183 6.30708 13.4391 6.27375 13.87C6.06292 13.8816 5.84625 13.8875 5.62375 13.8875C3.98625 13.8875 2.62375 13.5612 1.64875 13.03C1.51033 12.9539 1.3756 12.8713 1.245 12.7825V14.5075C1.245 14.8025 1.43125 15.24 2.23375 15.6725C3.02375 16.0975 4.20875 16.3825 5.62125 16.3825C5.90875 16.3825 6.18708 16.3708 6.45625 16.3475C6.55234 16.7629 6.68151 17.1701 6.8425 17.565C6.44917 17.6091 6.0425 17.6312 5.6225 17.6312L5.625 17.6475ZM2.25 8.19746C1.48125 7.77746 1.2475 7.32121 1.2475 7.02746V5.30246C1.37667 5.39079 1.51125 5.47329 1.65125 5.54996C2.62375 6.08121 3.98875 6.40746 5.62625 6.40746C7.26375 6.40746 8.62625 6.08121 9.60125 5.54996C9.73967 5.47388 9.8744 5.39129 10.005 5.30246V7.02746C10.005 7.32121 9.77125 7.77746 9.0025 8.19621C8.2575 8.60246 7.115 8.90121 5.6275 8.90121C4.14 8.90121 3.0025 8.60246 2.2525 8.19621L2.25 8.19746ZM10 3.27246C10 2.91246 9.84375 2.56621 9.5525 2.35496C9.39375 2.23996 9.22125 2.12496 9.085 2.06246C8.74375 1.90496 7.035 1.39621 5.6225 1.39621C4.21 1.39621 2.985 1.67996 2.16 2.06246C2.005 2.13371 1.83375 2.24496 1.6825 2.35496C1.39375 2.56371 1.245 2.90746 1.245 3.26371V3.27121C1.245 3.56496 1.47875 4.02121 2.2475 4.44121C2.9925 4.84746 4.135 5.14621 5.6225 5.14621C7.11 5.14621 8.2475 4.84621 8.9975 4.44121C9.76625 4.02246 10 3.56496 10 3.27246Z" fill="black"/>
<path fill-rule="evenodd" clip-rule="evenodd" d="M8.75 14.5225C8.75 17.635 11.2625 20.1475 14.375 20.1475C17.4875 20.1475 20 17.635 20 14.5225C20 11.41 17.4875 8.89746 14.375 8.89746C11.2625 8.89746 8.75 11.41 8.75 14.5225ZM10 14.5225C10 16.935 11.9625 18.8975 14.375 18.8975C16.7875 18.8975 18.75 16.935 18.75 14.5225C18.75 12.11 16.7875 10.1475 14.375 10.1475C11.9625 10.1475 10 12.11 10 14.5225Z" fill="black"/>
</svg>
